<?xml version="1.0" standalone="no"?>
<!DOCTYPE svg PUBLIC "-//W3C//DTD SVG 1.1//EN" "http://www.w3.org/Graphics/SVG/1.1/DTD/svg11.dtd" >
<svg>
<metadata>
Created by FontForge 20110222 at Mon Mar  7 04:05:58 2011
 By www-data
Copyright [c] Fish Dicks Inc., 1. All rights reserved.
</metadata>
<defs>
<font id="DanceStep" horiz-adv-x="997" >
  <font-face 
    font-family="DanceStep"
    font-weight="400"
    font-stretch="normal"
    units-per-em="1000"
    panose-1="2 0 5 3 0 0 0 0 0 0"
    ascent="800"
    descent="-200"
    x-height="756"
    cap-height="800"
    bbox="-26 -367 1313 1007"
    underline-thickness="20"
    underline-position="-143"
    unicode-range="U+0020-007A"
  />
    <missing-glyph />
    <glyph glyph-name="space" unicode=" " horiz-adv-x="500" 
 />
    <glyph glyph-name="exclam" unicode="!" horiz-adv-x="500" 
d="M277 -367c-98 0 -171 69 -171 150c0 76 74 150 150 150c75 1 149 -71 149 -145c0 -93 -51 -155 -128 -155zM254 797c88 0 160 -142 160 -315c-1 -89 -10 -149 -29 -180l-262 2c-20 31 -30 88 -30 172c0 182 70 321 161 321zM122 241h268c0 -139 -12 -191 -76 -225
c-17 -9 -35 -13 -56 -13c-82 0 -136 71 -136 179v59z" />
    <glyph glyph-name="quotedbl" unicode="&#x22;" horiz-adv-x="500" 
d="M300 500l100 100v200h-100v-300zM100 600l100 -100v300h-100v-200z" />
    <glyph glyph-name="quotesingle" unicode="'" horiz-adv-x="301" 
d="M100 500h100v300h-100v-300z" />
    <glyph glyph-name="comma" unicode="," horiz-adv-x="420" 
d="M197 0c47 0 96 -47 96 -92c27 -23 41 -52 41 -88c0 -81 -68 -139 -165 -140c-29 0 -61 7 -97 20c72 0 131 34 151 107c-78 0 -123 38 -123 96c0 49 51 97 97 97z" />
    <glyph glyph-name="period" unicode="." horiz-adv-x="401" 
d="M208 -195c-75 0 -110 55 -110 97c0 49 51 97 97 97c39 7 96 -44 96 -95c0 -64 -39 -99 -83 -99z" />
    <glyph glyph-name="zero" unicode="0" horiz-adv-x="1068" 
d="M226 495c-61 -43 -92 -101 -93 -172c0 -182 165 -354 349 -362c157 0 338 156 344 348c0 210 -132 380 -298 380c-51 -1 -102 -15 -155 -41l108 -84l-314 26l132 262l22 -132c83 51 162 77 238 77c221 0 392 -209 397 -483c0 -274 -212 -505 -454 -505
c-262 0 -499 230 -499 486c0 101 32 201 97 298z" />
    <glyph glyph-name="one" unicode="1" horiz-adv-x="599" 
d="M346 -18l1 -82l91 17l-138 -117l-142 114l85 -14l-6 85zM299 0c-88 0 -160 144 -160 315c1 89 10 149 29 180l262 -2c20 -32 30 -89 30 -172c0 -183 -69 -321 -161 -321zM431 556h-268c0 139 12 191 76 225c16 9 35 13 56 13c83 0 136 -69 136 -179v-59z" />
    <glyph glyph-name="two" unicode="2" horiz-adv-x="934" 
d="M46 498l166 48l-69 59c62 55 169 91 274 91c128 0 200 -56 200 -154c0 -19 -2 -39 -7 -60c-42 -60 -86 -71 -198 -79c-82 2 -112 2 -116 2c-126 0 -233 -48 -273 -132c-7 -23 -11 -48 -11 -73c0 -50 13 -89 39 -116c16 11 40 26 72 45c-6 18 -9 35 -9 50
c0 94 160 121 290 121c204 0 348 96 348 231s-178 265 -372 265c-125 0 -218 -44 -280 -131l-7 1c-1 0 -2 -1 -4 -2l-49 50zM47 -29c0 88 144 161 314 161c90 -1 150 -10 181 -29l-2 -262c-31 -20 -88 -30 -171 -30c-185 0 -322 69 -322 160zM603 -159v268
c139 0 191 -12 225 -76c9 -17 13 -35 13 -56c0 -83 -69 -136 -179 -136h-59z" />
    <glyph glyph-name="three" unicode="3" horiz-adv-x="905" 
d="M791 470l-275 -215c117 0 225 -110 238 -244c0 -62 -40 -117 -121 -166c-69 -23 -140 -34 -212 -34c-200 0 -328 85 -349 232l-72 -17l140 175l126 -175l-80 14c7 -71 53 -107 148 -114l84 -6c157 0 235 33 235 95c0 64 -44 161 -256 165h-162l407 284zM316 471
c-177 0 -314 70 -314 159c0 84 133 162 314 162c89 0 149 -9 180 -27v-262c-32 -21 -92 -32 -180 -32zM559 502l-2 268h59c112 0 179 -48 180 -130c0 -83 -71 -138 -178 -138h-59z" />
    <glyph glyph-name="four" unicode="4" horiz-adv-x="977" 
d="M507 643l-261 -239h261v-100h-504l504 500v-161zM770 -13l1 -82l91 17l-138 -117l-142 114l85 -14l-6 85zM708 800c88 0 160 -142 160 -315c-1 -89 -10 -149 -29 -180l-262 2c-20 31 -30 88 -30 172c0 182 70 321 161 321zM576 244h268c0 -139 -12 -191 -76 -225
c-17 -9 -35 -13 -56 -13c-82 0 -136 71 -136 179v59z" />
    <glyph glyph-name="five" unicode="5" horiz-adv-x="1103" 
d="M204 496c2 -71 3 -129 3 -173l-3 -171l162 36c104 23 189 34 254 34c125 0 184 -52 184 -164c0 -105 -228 -154 -401 -154c-124 0 -237 29 -237 61v15l72 -11l-80 160l-155 -54l55 -49h-3c-10 -19 -15 -38 -15 -55c0 -85 122 -159 253 -159c57 -9 122 -13 196 -13
c294 3 430 95 430 289c0 58 -13 108 -39 150c-83 72 -172 106 -278 107c-79 0 -165 -20 -258 -61c-6 -6 -12 -7 -40 -11v217zM999 651c0 -89 -138 -158 -316 -158c-89 1 -149 10 -180 29l3 262c32 20 90 30 173 30c177 0 320 -71 320 -163zM444 786l-2 -268h-59
c-110 0 -178 51 -178 133s70 135 180 135h59z" />
    <glyph glyph-name="six" unicode="6" horiz-adv-x="877" 
d="M173 628c50 113 81 172 170 175c71 0 121 -56 121 -135c0 -32 -7 -64 -22 -95l-25 -54zM108 57c-67 0 -101 51 -103 159c0 140 92 317 148 354l238 -109c0 -175 -162 -404 -283 -404zM110 9c-10 -10 -14 -23 -14 -68c46 -40 125 -62 226 -62c204 -4 347 74 347 189
c0 61 -43 126 -126 190l-35 -97l-91 215l252 30l-109 -68c143 -82 191 -157 198 -318c-20 -85 -80 -148 -181 -191c-85 -11 -159 -16 -236 -17c-126 0 -247 17 -311 89c-19 10 -28 31 -28 63c0 34 9 85 28 85z" />
    <glyph glyph-name="seven" unicode="7" horiz-adv-x="1000" 
d="M588 599l100 100h-500v-76h86l-143 -124l-132 124h89v176h800l-184 -239zM584 571c68 0 102 -54 108 -175c0 -123 -62 -293 -122 -341l-246 91c-2 8 -3 17 -3 27c0 153 142 398 263 398zM302 87l251 -91c-49 -138 -77 -181 -166 -187c-68 -1 -121 57 -121 140
c0 29 4 55 15 83z" />
    <glyph glyph-name="eight" unicode="8" horiz-adv-x="1295" 
d="M758 137c201 -39 301 -81 301 -125c0 -71 -298 -135 -632 -135c-206 2 -316 34 -316 92c4 4 24 28 47 65l30 -95l70 190l-185 23l65 -60c-103 -103 -122 -159 -122 -200c102 -56 280 -89 482 -89c364 0 673 90 673 195c0 66 -118 131 -349 194zM875 221
c179 13 263 58 263 133c-9 173 -497 430 -827 434c-161 0 -252 -76 -252 -213c0 -39 7 -84 22 -136c64 32 77 39 99 53c-10 26 -15 49 -15 69c0 70 61 109 172 109c263 0 677 -187 677 -279c0 -33 -46 -52 -139 -59v-111zM851 302c0 -89 -138 -158 -316 -158
c-89 1 -149 10 -180 29l4 262c31 20 88 30 172 30c177 0 320 -71 320 -163zM296 437l-2 -268h-59c-110 0 -178 51 -178 133s70 135 180 135h59z" />
    <glyph glyph-name="nine" unicode="9" horiz-adv-x="1003" 
d="M586 363c0 139 12 191 76 225c15 9 34 13 56 13c83 0 136 -69 136 -179v-59h-268zM722 -192c-87 0 -160 143 -160 314c1 90 11 150 29 180l262 -2c20 -32 30 -90 30 -172c0 -182 -68 -320 -161 -320zM652 638c-2 50 -67 78 -185 78c-247 0 -377 -96 -377 -277
c0 -94 65 -142 195 -144c48 0 91 10 128 30l-46 75l197 -22l-59 -203l-39 65c-38 -38 -91 -57 -158 -57c-180 0 -308 111 -308 280c0 119 84 256 182 299c60 27 133 40 220 40c203 0 373 -63 373 -138c0 -9 -2 -17 -7 -26h-116z" />
    <glyph glyph-name="colon" unicode=":" horiz-adv-x="401" 
d="M217 306c-75 0 -110 55 -110 97c0 46 48 97 97 97c44 5 96 -46 96 -95c0 -64 -39 -99 -83 -99zM214 -193c-75 0 -110 55 -110 97c0 49 51 97 97 97c42 7 96 -47 96 -95c0 -64 -39 -99 -83 -99z" />
    <glyph glyph-name="semicolon" unicode=";" horiz-adv-x="477" 
d="M222 303c-75 0 -110 55 -110 97c0 46 48 97 97 97c50 -1 96 -46 96 -95c0 -64 -39 -99 -83 -99zM232 -1c47 0 96 -47 96 -92c27 -23 41 -52 41 -88c0 -81 -68 -139 -165 -140c-29 0 -61 7 -97 20c72 0 131 34 151 107c-78 0 -123 38 -123 96c0 49 51 97 97 97z" />
    <glyph glyph-name="question" unicode="?" horiz-adv-x="905" 
d="M318 -304c-83 0 -160 72 -160 150c0 74 76 150 150 150c73 2 149 -69 149 -145c0 -98 -51 -155 -139 -155zM688 764c61 0 96 -45 96 -124c0 -136 -119 -335 -201 -378l-220 143c0 107 165 347 325 359zM379 58c-68 0 -118 51 -120 128c0 37 12 76 37 116l32 50l226 -144
c-71 -113 -108 -150 -175 -150zM691 794c-36 84 -138 127 -269 128c-171 0 -298 -71 -303 -199c0 -28 8 -60 25 -95l2 -3h4l75 63l5 -200l-183 37l29 46c-49 61 -74 120 -74 176c0 177 250 260 435 260c237 0 358 -82 358 -244z" />
    <glyph glyph-name="A" unicode="A" 
d="M292 777c101 0 117 -133 117 -201c0 -113 -51 -270 -99 -315l-251 73c-3 12 -5 26 -5 42c0 176 129 401 238 401zM41 274l257 -73l-16 -57c-23 -85 -77 -141 -142 -141c-74 0 -124 55 -125 149c0 20 3 41 10 65zM421 733c25 -51 27 -57 27 -72c0 -5 -1 -11 -2 -16
c178 -75 391 -270 391 -619c0 -34 -2 -68 -7 -102h-119l154 -123l146 123h-123c1 0 1 1 1 2v4c0 2 2 4 4 5c1 0 19 73 19 162c0 315 -192 599 -491 633v3zM332 206c173 -24 182 -25 251 -26c24 0 49 2 73 6v-3h-3l-15 -83l144 126l-172 141l46 -121c-24 -8 -44 -11 -78 -11
c-141 10 -156 11 -212 11z" />
    <glyph glyph-name="B" unicode="B" horiz-adv-x="971" 
d="M170 801c88 0 160 -142 160 -315c-1 -89 -10 -149 -29 -180l-262 2c-20 31 -30 88 -30 172c0 182 70 321 161 321zM38 245h268c0 -139 -12 -191 -76 -225c-17 -9 -35 -13 -56 -13c-82 0 -136 71 -136 179v59zM357 661c37 42 81 62 130 62c89 0 173 -75 173 -156
c0 -56 -42 -104 -116 -135c-1 -3 -3 -7 -7 -12c7 -66 7 -70 7 -92c3 -3 4 -4 4 -14l4 -9c10 -6 10 -6 11 -7c100 -10 217 -95 217 -200c0 -84 -123 -207 -262 -207c-13 0 -26 1 -39 3l7 113l-142 -206l233 -82l-44 80c178 25 323 187 323 351c0 111 -66 197 -189 243
c-11 0 -13 0 -16 4c1 0 3 1 4 4l8 4l4 7c25 0 88 104 88 166c0 117 -115 215 -252 215c-65 0 -143 -29 -173 -61l-3 -2v-4z" />
    <glyph glyph-name="C" unicode="C" horiz-adv-x="1404" 
d="M1124 228c111 0 179 -42 179 -110c0 -80 -114 -178 -253 -224c-67 -21 -118 -32 -152 -32c-11 0 -20 1 -27 3l-81 248c46 59 224 115 334 115zM730 94l84 -253l-56 -19c-29 -10 -57 -15 -82 -15c-83 1 -136 49 -136 121c0 63 56 125 134 148zM1294 470
c0 -70 -54 -103 -181 -111c-117 0 -287 60 -336 117l88 247c9 2 19 3 31 3c162 0 398 -140 398 -256zM806 745l-88 -253c-145 49 -189 86 -189 161c0 76 58 125 138 125c30 0 56 -4 83 -14zM378 602c-125 -44 -203 -164 -203 -314c0 -204 132 -369 317 -381l1 2
c8 0 19 38 19 67c-145 11 -264 165 -264 339c0 155 96 221 164 244l29 -80l57 203l-152 26z" />
    <glyph glyph-name="D" unicode="D" horiz-adv-x="983" 
d="M370 679c52 12 99 18 140 18c242 0 282 -177 282 -273c0 -220 -172 -435 -408 -447l16 86l-200 -163l227 -86l-23 86c271 13 480 241 482 520c0 294 -217 349 -351 349c-60 -1 -129 -14 -206 -39zM299 606v-59h-268v59c0 109 52 179 133 179c82 0 135 -70 135 -179z
M166 -9c-88 0 -159 141 -159 315c1 89 10 149 29 180l262 -2c20 -31 30 -88 30 -172c0 -181 -71 -321 -162 -321z" />
    <glyph glyph-name="E" unicode="E" 
d="M367 202c0 -81 -18 -241 -134 -250c-95 -8 -198 183 -198 391c0 41 3 61 11 81l259 35c29 -20 62 -154 62 -257zM297 522l-265 -38l-9 58c-2 15 -3 30 -3 44c0 96 44 147 130 153c71 0 123 -61 138 -158zM355 653c67 -15 140 -20 276 -20h93l-13 -133l200 192l-243 128
l51 -101c-32 -8 -64 -12 -97 -12c-30 0 -80 4 -150 11c-51 5 -91 8 -152 8c-7 -4 -7 -4 -8 -4h-3zM415 258c33 -6 54 -6 183 -6l-23 -78l163 113l-176 113l39 -68c-16 -3 -33 -5 -51 -5c-1 0 -128 7 -135 8v-77zM326 -86c34 -22 88 -33 161 -33c108 0 272 31 295 51l-4 -101
l133 195l-182 74l43 -91c-46 -42 -111 -58 -243 -63c-77 0 -126 8 -175 27l-11 4l-3 -1c-1 1 -2 1 -3 5z" />
    <glyph glyph-name="F" unicode="F" horiz-adv-x="980" 
d="M359 223c84 25 104 31 145 31c26 0 47 -4 70 -19l-26 -72l143 89l-126 118l20 -75c-36 22 -69 31 -117 31c-45 0 -86 -11 -118 -31zM308 544c31 71 101 106 210 106c60 0 119 -11 176 -34c3 -6 5 -11 5 -17s-4 -17 -10 -30l-12 -26c-4 -9 -6 -18 -6 -27l209 84l-163 200
l6 -113c-69 34 -144 50 -224 50c-114 0 -190 -35 -229 -107zM304 450l-1 -59l-268 3l1 59c1 111 52 177 134 177c80 0 134 -69 134 -180zM164 -164c-85 2 -156 139 -156 302c0 92 11 163 32 194l262 -4c18 -30 27 -83 27 -158c0 -193 -69 -334 -165 -334z" />
    <glyph glyph-name="G" unicode="G" horiz-adv-x="1199" 
d="M764 638c-86 39 -168 58 -246 58c-224 0 -383 -163 -383 -391c0 -229 168 -382 421 -382c138 0 171 16 220 116l-107 15l156 99l123 -118l-69 4c-74 -151 -191 -230 -339 -230c-223 0 -522 162 -533 497c0 232 217 495 528 495c104 0 205 -29 302 -86l8 -8zM295 303
c0 88 144 161 314 161c90 -1 150 -11 181 -29l-2 -262c-29 -20 -84 -30 -164 -30c-188 0 -329 69 -329 160zM910 441c63 0 179 -19 179 -132c0 -82 -71 -136 -179 -136h-59v268h59z" />
    <glyph glyph-name="H" unicode="H" horiz-adv-x="1077" 
d="M790 412c10 122 67 238 119 238c3 -1 4 -4 4 -10c0 -53 -14 -78 -118 -233zM369 286c113 0 213 -5 298 -14c10 -58 16 -117 17 -176c0 -17 -2 -77 -6 -182l-66 6l126 -121l100 124l-69 -23c0 6 -7 201 -8 220c0 57 7 108 20 155l-1 2c1 0 2 3 4 9c131 70 199 226 199 365
c0 69 -40 120 -95 120c-13 0 -28 -3 -44 -9c-58 -98 -106 -220 -143 -367c-37 -6 -80 -9 -130 -9c-15 0 -63 1 -194 4zM174 803c88 0 160 -142 160 -315c-1 -89 -10 -149 -29 -180l-262 2c-20 31 -30 88 -30 172c0 182 70 321 161 321zM42 247h268c0 -139 -12 -191 -76 -225
c-17 -9 -35 -13 -56 -13c-82 0 -136 71 -136 179v59z" />
    <glyph glyph-name="I" unicode="I" horiz-adv-x="905" 
d="M477 356l-76 14l3 -218l-80 -3l-6 229l-76 -24l94 120zM798 637c0 -86 -138 -158 -306 -158c-94 0 -159 11 -190 31l4 262c31 19 85 28 164 28c187 0 328 -70 328 -163zM243 773l-2 -268h-59c-108 0 -178 52 -178 134c0 80 72 134 180 134h59zM796 -36
c0 -86 -141 -157 -306 -157c-91 0 -156 11 -190 31l4 262c30 19 85 28 164 28c187 0 328 -70 328 -164zM241 101l-2 -268l-59 1c-110 1 -178 53 -178 134c0 80 72 134 180 134z" />
    <glyph glyph-name="J" unicode="J" horiz-adv-x="909" 
d="M65 168c-24 -40 -35 -78 -35 -113c3 -160 228 -286 469 -286c179 0 284 69 284 185c0 23 -4 49 -13 76c-23 0 -24 -1 -71 -35c0 -76 -81 -121 -216 -121c-197 0 -371 88 -371 201c0 21 6 43 19 67l57 -34l-80 235l-106 -126zM390 609c0 120 45 195 114 195
c119 0 244 -239 244 -408c0 -13 -1 -25 -4 -34l-252 -72c-51 46 -102 203 -102 319zM509 230l257 75l17 -57c7 -25 11 -48 12 -71c0 -65 -29 -142 -123 -142c-80 0 -120 51 -163 195z" />
    <glyph glyph-name="K" unicode="K" horiz-adv-x="1001" 
d="M445 221l-115 -243c-134 66 -169 97 -171 174c0 28 10 53 30 75c-33 33 -42 52 -42 91c0 50 25 97 74 141l44 39l178 -200l-57 -50zM207 796c-3 -63 -17 -163 -44 -301c-25 -129 -38 -229 -38 -301c0 -89 14 -169 43 -242l46 -20l-88 -137l-126 149l88 4
c-31 94 -47 214 -47 360v125c15 78 18 130 19 217c0 49 -2 97 -6 146h153zM899 -99c0 -39 -22 -98 -145 -101c-136 0 -319 85 -368 156l116 237c159 0 397 -169 397 -292zM685 801c66 0 107 -37 107 -97c-2 -82 -61 -184 -153 -264c-67 -59 -119 -91 -154 -98l-172 197
c29 103 242 262 372 262z" />
    <glyph glyph-name="L" unicode="L" 
d="M117 -23v-135h593l-10 -43l200 89l-189 109l31 -71h-530v54zM328 319c0 -180 -68 -315 -158 -315c-92 0 -162 140 -163 322c0 84 9 142 27 173l262 -2c21 -32 31 -91 32 -178zM296 560h-268c-3 166 27 236 130 238c83 0 134 -67 137 -179z" />
    <glyph glyph-name="M" unicode="M" horiz-adv-x="1299" 
d="M817 363l-183 -563l-234 723l-41 -38v191l241 -76l-115 -31l149 -447l166 543zM30 570c0 138 12 191 75 226c16 9 35 13 56 13c82 0 137 -71 137 -178v-59zM169 15c-89 0 -162 141 -162 314c1 89 10 149 29 180h262c20 -32 30 -89 30 -172c0 -185 -68 -322 -159 -322z
M887 558c0 138 12 191 75 226c16 9 35 13 56 13c82 0 137 -71 137 -178v-59zM1026 3c-89 0 -162 141 -162 314c1 89 10 149 29 180h262c20 -32 30 -89 30 -172c0 -185 -68 -322 -159 -322z" />
    <glyph glyph-name="N" unicode="N" horiz-adv-x="1275" 
d="M180 647c-19 17 -21 20 -23 42c0 28 22 40 84 40l8 -4c149 -29 169 -81 298 -450c15 -164 165 -320 316 -320c60 0 112 23 157 68l57 100c12 78 18 162 18 251c0 85 -8 189 -25 274l117 -10l-194 162l-93 -200l100 29c24 -105 30 -167 32 -281c0 -180 -66 -290 -171 -290
c-99 0 -211 121 -231 246c-91 342 -222 501 -412 501c-88 0 -134 -27 -134 -101c0 -26 8 -47 25 -62zM296 433v-59l-268 -2v59c0 111 51 180 131 180c82 0 137 -71 137 -178zM167 -183c-89 0 -162 141 -162 314c1 89 10 149 29 180h262c20 -31 30 -88 30 -172
c0 -185 -68 -322 -159 -322z" />
    <glyph glyph-name="O" unicode="O" horiz-adv-x="1100" 
d="M540 598c-34 17 -67 26 -98 26c-156 0 -292 -173 -292 -358c0 -76 16 -148 86 -209c86 -74 174 -112 265 -112c188 -4 377 182 377 362c0 90 -54 168 -135 230l-27 -135l-120 292l294 2l-107 -80c145 -85 216 -194 216 -330c0 -249 -256 -482 -532 -482
c-263 0 -465 192 -465 454c0 274 191 501 489 501c14 0 56 -3 78 -5z" />
    <glyph glyph-name="P" unicode="P" horiz-adv-x="902" 
d="M206 656c5 87 78 138 197 138c121 0 236 -54 267 -127c7 -23 11 -45 11 -66c0 -107 -89 -186 -210 -186c-12 0 -25 1 -38 3l31 94l-143 -116l117 -131l-8 70c36 4 72 6 108 6c157 0 250 86 253 258c0 198 -117 295 -360 295c-209 1 -314 -70 -314 -215c3 -14 4 -15 9 -20
v-2l3 -7zM171 -195c-88 0 -160 142 -160 315c1 89 10 149 29 180l262 -2c20 -32 30 -89 30 -172c0 -184 -69 -321 -161 -321zM303 361h-268c0 139 12 191 76 225c16 9 35 13 56 13c83 0 136 -69 136 -179v-59z" />
    <glyph glyph-name="Q" unicode="Q" horiz-adv-x="1103" 
d="M907 270c-26 274 -174 441 -394 441c-221 0 -392 -159 -399 -377c0 -107 43 -216 129 -327c24 -30 65 -39 146 -39l-40 101l164 -89l-43 -165l-31 64c-284 0 -429 155 -431 470c0 267 200 475 464 475c307 5 537 -238 537 -581c-1 0 -2 -1 -2 -2s1 -2 2 -3
c-3 0 -89 -150 -89 -157l-57 103zM361 381c0 77 37 124 97 124c77 0 183 -77 256 -188c50 -76 75 -131 76 -166l-219 -144c-89 40 -210 244 -210 374zM605 -46l223 149l33 -49c29 -43 43 -86 43 -127c-1 -63 -53 -114 -117 -116c-56 0 -110 36 -149 94z" />
    <glyph glyph-name="R" unicode="R" horiz-adv-x="982" 
d="M220 623c32 60 77 90 134 90c117 0 232 -125 232 -253c-3 -69 -38 -123 -107 -162l256 -398h-118l206 -83l38 183l-59 -50c-107 155 -153 240 -200 350c51 53 76 114 76 182c0 162 -160 324 -320 324c-101 0 -178 -61 -222 -176zM165 600c88 0 160 -142 160 -315
c-1 -89 -10 -149 -29 -180l-262 2c-20 31 -30 88 -30 172c0 182 70 321 161 321zM33 44h268c0 -139 -12 -191 -76 -225c-17 -9 -35 -13 -56 -13c-82 0 -136 71 -136 179v59z" />
    <glyph glyph-name="S" unicode="S" horiz-adv-x="1335" 
d="M20 214c0 60 51 95 137 95c126 0 327 -106 369 -185l-133 -225c-139 0 -358 170 -373 315zM447 -133l134 231c108 -62 157 -101 157 -177c-2 -66 -58 -117 -130 -117c-37 0 -73 11 -110 33zM1098 463l-221 46l38 54v3c-282 119 -283 119 -348 120
c-81 1 -157 -45 -157 -95c0 -33 23 -65 69 -97c43 -11 117 -20 222 -27c237 -18 333 -46 435 -141c67 -61 100 -137 100 -227c0 -177 -121 -294 -306 -294c-49 0 -105 10 -168 29c9 44 24 76 46 96c46 -18 88 -28 125 -28c78 0 146 30 178 102c11 25 16 51 16 79
c0 77 -38 144 -109 189c-50 52 -119 70 -319 85c-297 18 -434 100 -434 262c0 36 6 56 20 81c77 74 173 111 288 111c140 0 292 -70 388 -180c3 0 5 -1 11 -7l61 130z" />
    <glyph glyph-name="T" unicode="T" horiz-adv-x="902" 
d="M435 421l-5 -421l170 29l-233 -212l-238 229l171 -46v421h135zM241 499c-139 0 -191 12 -225 76c-9 16 -13 35 -13 56c0 83 69 136 179 136h59v-268zM796 635c0 -89 -141 -160 -315 -160c-89 1 -149 10 -180 29l2 262c31 20 88 30 172 30c184 0 321 -69 321 -161z" />
    <glyph glyph-name="U" unicode="U" horiz-adv-x="1103" 
d="M202 -26c8 -80 113 -121 297 -121c82 0 159 8 248 25c4 4 7 5 55 22l-98 -6l135 90l123 -84h-75c-3 -69 -129 -100 -385 -100c-246 0 -377 61 -377 174h77zM835 795c88 0 160 -142 160 -315c-1 -89 -10 -149 -29 -180l-262 2c-20 31 -30 88 -30 172c0 182 70 321 161 321
zM703 239h268c0 -139 -12 -191 -76 -225c-17 -9 -35 -13 -56 -13c-82 0 -136 71 -136 179v59zM162 793c88 0 160 -142 160 -315c-1 -89 -10 -149 -29 -180l-262 2c-20 31 -30 88 -30 172c0 182 70 321 161 321zM30 237h268c0 -139 -12 -191 -76 -225c-17 -9 -35 -13 -56 -13
c-82 0 -136 71 -136 179v59z" />
    <glyph glyph-name="V" unicode="V" horiz-adv-x="1100" 
d="M255 -11l259 -189l230 100l81 -43l-86 120l-152 -40h100l-173 -75l-151 121zM754 -1c-74 1 -121 85 -121 218c0 115 44 254 85 296l255 -62c5 -13 7 -30 7 -49c0 -189 -118 -403 -226 -403zM988 513l-261 61c38 156 61 193 153 205c79 0 126 -53 128 -153
c0 -20 -2 -38 -6 -56zM428 189c0 -113 -45 -188 -113 -188c-111 0 -248 225 -248 408c0 12 1 22 3 31l251 75c56 -48 101 -183 107 -326zM303 576l-256 -79l-17 57c-9 32 -13 52 -13 78c0 83 48 137 123 137c64 0 123 -55 147 -137z" />
    <glyph glyph-name="W" unicode="W" horiz-adv-x="1401" 
d="M443 295l28 -53c21 -39 31 -75 31 -109c0 -71 -51 -124 -115 -124c-84 0 -125 55 -180 160zM6 598c0 47 14 134 99 134c131 0 306 -250 306 -386l-233 -121c-81 48 -170 234 -172 373zM1115 -34c-66 -123 -101 -163 -172 -163s-122 56 -122 131c0 35 10 71 29 106l28 52z
M1219 530c63 -1 94 -54 94 -136c0 -132 -95 -323 -174 -373l-230 126c0 153 167 367 310 383zM661 639l141 -342l-67 21l149 -143l26 237l-46 -88l-200 484l-218 -399l54 -68z" />
    <glyph glyph-name="X" unicode="X" horiz-adv-x="1020" 
d="M-26 21l76 -60l61 65l71 -81l-68 -60l64 -61l-204 -3v200zM795 575l133 147l-76 77l-138 -146zM624 157l249 -283l-87 -67l-240 284zM200 800l-60 -76l213 -246l-81 -71l-208 253l-61 -64l-3 204h200zM514 122c-87 -98 -163 -144 -241 -144c-67 1 -114 38 -119 128
c0 71 42 149 125 235c65 67 113 104 144 113l192 -179c-7 -35 -41 -86 -101 -153zM658 321l-197 181l40 43c47 50 93 75 138 75c51 0 119 -39 119 -123c0 -45 -21 -91 -60 -133z" />
    <glyph glyph-name="Y" unicode="Y" horiz-adv-x="1017" 
d="M595 46c0 -138 -12 -190 -76 -224c-17 -9 -35 -13 -56 -13c-82 0 -136 71 -136 179v58h268zM459 602c86 0 160 -146 160 -315c-1 -90 -11 -150 -29 -180l-262 2c-20 30 -30 85 -30 165c0 186 67 328 161 328zM172 796c-60 -33 -76 -78 -79 -146c0 -95 67 -173 149 -173
c12 0 26 2 41 6c-18 -63 -19 -70 -19 -81c-11 -3 -22 -4 -35 -4c-100 0 -218 101 -225 250c0 62 28 112 85 148h83zM619 411c27 -8 52 -12 77 -12c124 0 222 87 228 208c0 58 -29 106 -87 144l46 51h-243l123 -123l27 37c37 -26 56 -59 56 -99c0 -81 -69 -141 -169 -147
c-20 0 -41 4 -62 13z" />
    <glyph glyph-name="Z" unicode="Z" horiz-adv-x="1203" 
d="M825 682h275l-914 -756l747 -2l-49 148l221 -174l-221 -100l46 62l-927 2l914 757h-96zM-1 637c0 89 141 160 315 160c89 -1 149 -10 180 -29l-2 -262c-32 -20 -89 -30 -172 -30c-181 0 -321 70 -321 161zM555 505v268c139 0 191 -12 225 -76c9 -17 13 -35 13 -56
c0 -82 -71 -136 -179 -136h-59z" />
    <glyph glyph-name="a" unicode="a" 
d="M292 777c101 0 117 -133 117 -201c0 -113 -51 -270 -99 -315l-251 73c-3 12 -5 26 -5 42c0 176 129 401 238 401zM41 274l257 -73l-16 -57c-23 -85 -77 -141 -142 -141c-74 0 -124 55 -125 149c0 20 3 41 10 65zM421 733c25 -51 27 -57 27 -72c0 -5 -1 -11 -2 -16
c178 -75 391 -270 391 -619c0 -34 -2 -68 -7 -102h-119l154 -123l146 123h-123c1 0 1 1 1 2v4c0 2 2 4 4 5c1 0 19 73 19 162c0 315 -192 599 -491 633v3zM332 206c173 -24 182 -25 251 -26c24 0 49 2 73 6v-3h-3l-15 -83l144 126l-172 141l46 -121c-24 -8 -44 -11 -78 -11
c-141 10 -156 11 -212 11z" />
    <glyph glyph-name="b" unicode="b" horiz-adv-x="971" 
d="M170 801c88 0 160 -142 160 -315c-1 -89 -10 -149 -29 -180l-262 2c-20 31 -30 88 -30 172c0 182 70 321 161 321zM38 245h268c0 -139 -12 -191 -76 -225c-17 -9 -35 -13 -56 -13c-82 0 -136 71 -136 179v59zM357 661c37 42 81 62 130 62c89 0 173 -75 173 -156
c0 -56 -42 -104 -116 -135c-1 -3 -3 -7 -7 -12c7 -66 7 -70 7 -92c3 -3 4 -4 4 -14l4 -9c10 -6 10 -6 11 -7c100 -10 217 -95 217 -200c0 -84 -123 -207 -262 -207c-13 0 -26 1 -39 3l7 113l-142 -206l233 -82l-44 80c178 25 323 187 323 351c0 111 -66 197 -189 243
c-11 0 -13 0 -16 4c1 0 3 1 4 4l8 4l4 7c25 0 88 104 88 166c0 117 -115 215 -252 215c-65 0 -143 -29 -173 -61l-3 -2v-4z" />
    <glyph glyph-name="c" unicode="c" horiz-adv-x="1229" 
d="M952 232c111 0 179 -42 179 -110c0 -80 -114 -178 -253 -224c-67 -21 -118 -32 -152 -32c-11 0 -20 1 -27 3l-81 248c46 59 224 115 334 115zM558 98l84 -253l-56 -19c-29 -10 -57 -15 -82 -15c-80 -2 -136 49 -136 121c0 63 56 125 134 148zM1122 474
c0 -70 -54 -103 -181 -111c-117 0 -287 60 -336 117l88 247c9 2 19 3 31 3c162 0 398 -140 398 -256zM634 749l-88 -253c-145 49 -189 86 -189 161c0 76 58 125 138 125c30 0 56 -4 83 -14zM206 606c-125 -44 -203 -164 -203 -314c0 -204 132 -369 317 -381l1 2
c8 0 19 38 19 67c-145 11 -264 165 -264 339c0 155 96 221 164 244l29 -80l57 203l-152 26z" />
    <glyph glyph-name="d" unicode="d" horiz-adv-x="983" 
d="M370 679c52 12 99 18 140 18c242 0 282 -177 282 -273c0 -220 -172 -435 -408 -447l16 86l-200 -163l227 -86l-23 86c271 13 480 241 482 520c0 294 -217 349 -351 349c-60 -1 -129 -14 -206 -39zM299 606v-59h-268v59c0 109 52 179 133 179c82 0 135 -70 135 -179z
M166 -9c-88 0 -159 141 -159 315c1 89 10 149 29 180l262 -2c20 -31 30 -88 30 -172c0 -181 -71 -321 -162 -321z" />
    <glyph glyph-name="e" unicode="e" 
d="M367 202c0 -81 -18 -241 -134 -250c-95 -8 -198 183 -198 391c0 41 3 61 11 81l259 35c29 -20 62 -154 62 -257zM297 522l-265 -38l-9 58c-2 15 -3 30 -3 43c0 97 43 148 130 154c71 0 123 -61 138 -158zM355 653c67 -15 140 -20 276 -20h93l-13 -133l200 192l-243 128
l51 -101c-32 -8 -64 -12 -97 -12c-30 0 -80 4 -150 11c-51 5 -91 8 -152 8c-7 -4 -7 -4 -8 -4h-3zM415 258c33 -6 54 -6 183 -6l-23 -78l163 113l-176 113l39 -68c-16 -3 -33 -5 -51 -5c-1 0 -128 7 -135 8v-77zM326 -86c34 -22 88 -33 161 -33c108 0 272 31 295 51l-4 -101
l133 195l-182 74l43 -91c-46 -42 -111 -58 -243 -63c-77 0 -126 8 -175 27l-11 4l-3 -1c-1 1 -2 1 -3 5z" />
    <glyph glyph-name="f" unicode="f" horiz-adv-x="980" 
d="M359 223c84 25 104 31 145 31c26 0 47 -4 70 -19l-26 -72l143 89l-126 118l20 -75c-36 22 -69 31 -117 31c-45 0 -86 -11 -118 -31zM308 544c31 71 101 106 210 106c60 0 119 -11 176 -34c3 -6 5 -11 5 -17s-4 -17 -10 -30l-12 -26c-4 -9 -6 -18 -6 -27l209 84l-163 200
l6 -113c-69 34 -144 50 -224 50c-114 0 -190 -35 -229 -107zM304 450l-1 -59l-268 3l1 59c1 111 52 177 134 177c80 0 134 -69 134 -180zM164 -164c-85 2 -156 139 -156 302c0 92 11 163 32 194l262 -4c18 -30 27 -83 27 -158c0 -193 -69 -334 -165 -334z" />
    <glyph glyph-name="g" unicode="g" horiz-adv-x="1199" 
d="M766 633c-86 39 -168 58 -246 58c-224 0 -383 -163 -383 -391c0 -229 168 -382 421 -382c138 0 171 16 220 116l-107 15l156 99l123 -118l-69 4c-74 -151 -191 -230 -339 -230c-223 0 -522 162 -533 497c0 265 247 495 530 495c103 0 203 -29 300 -86l8 -8zM297 298
c0 88 144 161 314 161c90 -1 150 -11 181 -29l-2 -262c-29 -20 -84 -30 -164 -30c-188 0 -329 69 -329 160zM912 436c63 0 179 -19 179 -132c0 -82 -71 -136 -179 -136h-59v268h59z" />
    <glyph glyph-name="h" unicode="h" horiz-adv-x="1077" 
d="M790 412c10 122 67 238 119 238c3 -1 4 -4 4 -10c0 -53 -14 -78 -118 -233zM369 286c113 0 213 -5 298 -14c10 -58 16 -117 17 -176c0 -17 -2 -77 -6 -182l-66 6l126 -121l100 124l-69 -23c0 6 -7 201 -8 220c0 57 7 108 20 155l-1 2c1 0 2 3 4 9c131 70 199 226 199 365
c0 69 -40 120 -95 120c-13 0 -28 -3 -44 -9c-58 -98 -106 -220 -143 -367c-37 -6 -80 -9 -130 -9c-15 0 -63 1 -194 4zM174 803c88 0 160 -142 160 -315c-1 -89 -10 -149 -29 -180l-262 2c-20 31 -30 88 -30 172c0 182 70 321 161 321zM42 247h268c0 -139 -12 -191 -76 -225
c-17 -9 -35 -13 -56 -13c-82 0 -136 71 -136 179v59z" />
    <glyph glyph-name="i" unicode="i" horiz-adv-x="905" 
d="M477 356l-76 14l3 -218l-80 -3l-6 229l-76 -24l94 120zM798 637c0 -86 -138 -158 -306 -158c-94 0 -159 11 -190 31l4 262c31 19 85 28 164 28c187 0 328 -70 328 -163zM243 773l-2 -268h-59c-108 0 -178 52 -178 134c0 80 72 134 180 134h59zM796 -36
c0 -86 -141 -157 -306 -157c-91 0 -156 11 -190 31l4 262c30 19 85 28 164 28c187 0 328 -70 328 -164zM241 101l-2 -268l-59 1c-110 1 -178 53 -178 134c0 80 72 134 180 134z" />
    <glyph glyph-name="j" unicode="j" horiz-adv-x="909" 
d="M65 168c-24 -40 -35 -78 -35 -113c3 -160 228 -286 469 -286c179 0 284 69 284 185c0 23 -4 49 -13 76c-23 0 -24 -1 -71 -35c0 -76 -81 -121 -216 -121c-197 0 -371 88 -371 201c0 21 6 43 19 67l57 -34l-80 235l-106 -126zM390 609c0 120 45 195 114 195
c119 0 244 -239 244 -408c0 -13 -1 -25 -4 -34l-252 -72c-51 46 -102 203 -102 319zM509 230l257 75l17 -57c7 -25 11 -48 12 -71c0 -65 -29 -142 -123 -142c-80 0 -120 51 -163 195z" />
    <glyph glyph-name="k" unicode="k" horiz-adv-x="1001" 
d="M445 221l-115 -243c-134 66 -169 97 -171 174c0 28 10 53 30 75c-33 33 -42 52 -42 91c0 50 25 97 74 141l44 39l178 -200l-57 -50zM207 796c-3 -63 -17 -163 -44 -301c-25 -129 -38 -229 -38 -301c0 -89 14 -169 43 -242l46 -20l-88 -137l-126 149l88 4
c-31 94 -47 214 -47 360v125c15 78 18 130 19 217c0 49 -2 97 -6 146h153zM899 -99c0 -39 -22 -98 -145 -101c-136 0 -319 85 -368 156l116 237c159 0 397 -169 397 -292zM685 801c66 0 107 -37 107 -97c-2 -82 -61 -184 -153 -264c-67 -59 -119 -91 -154 -98l-172 197
c29 103 242 262 372 262z" />
    <glyph glyph-name="l" unicode="l" 
d="M117 -23v-135h593l-10 -43l200 89l-189 109l31 -71h-530v54zM328 319c0 -180 -68 -315 -158 -315c-92 0 -162 140 -163 322c0 84 9 142 27 173l262 -2c21 -32 31 -91 32 -178zM296 560h-268c-3 166 27 236 130 238c83 0 134 -67 137 -179z" />
    <glyph glyph-name="m" unicode="m" horiz-adv-x="1299" 
d="M817 363l-183 -563l-234 723l-41 -38v191l241 -76l-115 -31l149 -447l166 543zM30 570c0 138 12 191 75 226c16 9 35 13 56 13c82 0 137 -71 137 -178v-59zM169 15c-89 0 -162 141 -162 314c1 89 10 149 29 180h262c20 -32 30 -89 30 -172c0 -185 -68 -322 -159 -322z
M887 558c0 138 12 191 75 226c16 9 35 13 56 13c82 0 137 -71 137 -178v-59zM1026 3c-89 0 -162 141 -162 314c1 89 10 149 29 180h262c20 -32 30 -89 30 -172c0 -185 -68 -322 -159 -322z" />
    <glyph glyph-name="n" unicode="n" horiz-adv-x="1280" 
d="M167 -182c-88 0 -162 143 -162 313c1 90 11 150 29 180h262c20 -31 30 -88 30 -172c0 -184 -68 -321 -159 -321zM296 374l-268 -2v59c0 111 51 180 131 180c81 0 137 -69 137 -178v-59zM180 647c-19 17 -21 20 -23 42c0 29 24 40 84 40l8 -4c125 -24 184 -101 250 -313
c23 -69 35 -104 48 -137c17 -166 165 -319 316 -319c105 0 143 39 214 167c12 78 18 162 18 251c0 90 -9 193 -25 274l117 -10l-194 162l-93 -200l100 29c26 -111 30 -180 32 -282c0 -178 -66 -289 -171 -289c-99 0 -214 123 -231 246c-89 339 -223 501 -412 501
c-78 0 -134 -21 -134 -101c0 -27 8 -47 25 -62z" />
    <glyph glyph-name="o" unicode="o" horiz-adv-x="1111" 
d="M547 595c-34 17 -67 26 -98 26c-156 0 -292 -173 -292 -358c0 -76 16 -148 86 -209c86 -74 174 -112 265 -112c189 -3 377 180 377 362c0 90 -54 168 -135 230l-27 -135l-120 292l294 2l-107 -80c145 -85 216 -194 216 -330c0 -250 -257 -482 -532 -482
c-263 0 -465 192 -465 454c0 274 191 501 489 501c14 0 56 -3 78 -5z" />
    <glyph glyph-name="p" unicode="p" horiz-adv-x="902" 
d="M206 656c5 87 78 138 197 138c121 0 236 -54 267 -127c7 -23 11 -45 11 -66c0 -107 -89 -186 -210 -186c-12 0 -25 1 -38 3l31 94l-143 -116l117 -131l-8 70c36 4 72 6 108 6c157 0 250 86 253 258c0 198 -117 295 -360 295c-209 1 -314 -70 -314 -215c3 -14 4 -15 9 -20
v-2l3 -7zM171 -195c-88 0 -160 142 -160 315c1 89 10 149 29 180l262 -2c20 -32 30 -89 30 -172c0 -184 -69 -321 -161 -321zM303 361h-268c0 139 12 191 76 225c16 9 35 13 56 13c83 0 136 -69 136 -179v-59z" />
    <glyph glyph-name="q" unicode="q" horiz-adv-x="1103" 
d="M907 270c-26 274 -174 441 -394 441c-221 0 -392 -159 -399 -377c0 -107 43 -216 129 -327c24 -30 65 -39 146 -39l-40 101l164 -89l-43 -165l-31 64c-284 0 -429 155 -431 470c0 267 200 475 464 475c307 5 537 -238 537 -581c-1 0 -2 -1 -2 -2s1 -2 2 -3
c-3 0 -89 -150 -89 -157l-57 103zM361 381c0 77 37 124 97 124c77 0 183 -77 256 -188c50 -76 75 -131 76 -166l-219 -144c-89 40 -210 244 -210 374zM605 -46l223 149l33 -49c29 -43 43 -86 43 -127c-1 -63 -53 -114 -117 -116c-56 0 -110 36 -149 94z" />
    <glyph glyph-name="r" unicode="r" horiz-adv-x="982" 
d="M220 623c32 60 77 90 134 90c117 0 232 -125 232 -253c-3 -69 -38 -123 -107 -162l256 -398h-118l206 -83l38 183l-59 -50c-107 155 -153 240 -200 350c51 53 76 114 76 182c0 162 -160 324 -320 324c-101 0 -178 -61 -222 -176zM165 600c88 0 160 -142 160 -315
c-1 -89 -10 -149 -29 -180l-262 2c-20 31 -30 88 -30 172c0 182 70 321 161 321zM33 44h268c0 -139 -12 -191 -76 -225c-17 -9 -35 -13 -56 -13c-82 0 -136 71 -136 179v59z" />
    <glyph glyph-name="s" unicode="s" horiz-adv-x="1322" 
d="M1033 754l65 -291l-221 46l38 54v3c-282 119 -283 119 -348 120c-81 1 -157 -45 -157 -95c0 -33 23 -64 69 -97c43 -11 117 -20 222 -27c240 -18 331 -45 435 -141c67 -61 100 -137 100 -227c0 -179 -120 -295 -306 -295c-50 0 -106 10 -168 29c9 45 25 77 46 96
c47 -18 90 -27 128 -27c79 1 191 40 191 182c0 76 -38 143 -109 188c-55 57 -103 67 -401 92c-135 18 -198 36 -267 84c-57 48 -85 105 -85 171c0 30 6 55 20 81c77 74 173 111 288 111c143 0 290 -68 388 -180c3 0 5 -1 11 -7zM498 -164l-51 30l134 232
c111 -63 157 -101 157 -178c-2 -66 -58 -117 -130 -117c-37 0 -73 11 -110 33zM19 214c0 81 86 96 135 96c133 0 330 -109 372 -186l-133 -226c-138 0 -358 171 -374 316z" />
    <glyph glyph-name="t" unicode="t" horiz-adv-x="902" 
d="M435 421l-5 -421l170 29l-233 -212l-238 229l171 -46v421h135zM241 499c-139 0 -191 12 -225 76c-9 16 -13 35 -13 56c0 83 69 136 179 136h59v-268zM796 635c0 -89 -141 -160 -315 -160c-89 1 -149 10 -180 29l2 262c31 20 88 30 172 30c184 0 321 -69 321 -161z" />
    <glyph glyph-name="u" unicode="u" horiz-adv-x="1103" 
d="M202 -26c8 -80 113 -121 297 -121c82 0 159 8 248 25c4 4 7 5 55 22l-98 -6l135 90l123 -84h-75c-3 -69 -129 -100 -385 -100c-246 0 -377 61 -377 174h77zM835 795c88 0 160 -142 160 -315c-1 -89 -10 -149 -29 -180l-262 2c-20 31 -30 88 -30 172c0 182 70 321 161 321
zM703 239h268c0 -139 -12 -191 -76 -225c-17 -9 -35 -13 -56 -13c-82 0 -136 71 -136 179v59zM162 793c88 0 160 -142 160 -315c-1 -89 -10 -149 -29 -180l-262 2c-20 31 -30 88 -30 172c0 182 70 321 161 321zM30 237h268c0 -139 -12 -191 -76 -225c-17 -9 -35 -13 -56 -13
c-82 0 -136 71 -136 179v59z" />
    <glyph glyph-name="v" unicode="v" horiz-adv-x="1100" 
d="M255 -11l259 -189l230 100l81 -43l-86 120l-152 -40h100l-173 -75l-151 121zM754 -1c-74 1 -121 85 -121 218c0 115 44 254 85 296l255 -62c5 -13 7 -30 7 -49c0 -189 -118 -403 -226 -403zM988 513l-261 61c38 156 61 193 153 205c79 0 126 -53 128 -153
c0 -20 -2 -38 -6 -56zM428 189c0 -113 -45 -188 -113 -188c-111 0 -248 225 -248 408c0 12 1 22 3 31l251 75c56 -48 101 -183 107 -326zM303 576l-256 -79l-17 57c-9 32 -13 52 -13 78c0 83 48 137 123 137c64 0 123 -55 147 -137z" />
    <glyph glyph-name="w" unicode="w" horiz-adv-x="1418" 
d="M441 295l28 -53c21 -39 31 -75 31 -109c0 -71 -51 -124 -115 -124c-84 0 -125 55 -180 160zM4 598c0 47 14 134 99 134c131 0 306 -250 306 -386l-233 -121c-81 48 -170 234 -172 373zM1113 -34c-66 -123 -101 -163 -172 -163s-122 56 -122 131c0 35 10 71 29 106l28 52z
M1217 530c63 -1 94 -54 94 -136c0 -132 -95 -323 -174 -373l-230 126c0 153 167 367 310 383zM659 639l141 -342l-67 21l149 -143l26 237l-46 -88l-200 484l-218 -399l54 -68z" />
    <glyph glyph-name="x" unicode="x" horiz-adv-x="1020" 
d="M-26 21l76 -60l61 65l71 -81l-68 -60l64 -61l-204 -3v200zM795 575l133 147l-76 77l-138 -146zM624 157l249 -283l-87 -67l-240 284zM200 800l-60 -76l213 -246l-81 -71l-208 253l-61 -64l-3 204h200zM514 122c-87 -98 -163 -144 -241 -144c-67 1 -114 38 -119 128
c0 71 42 149 125 235c65 67 113 104 144 113l192 -179c-7 -35 -41 -86 -101 -153zM658 321l-197 181l40 43c47 50 93 75 138 75c51 0 119 -39 119 -123c0 -45 -21 -91 -60 -133z" />
    <glyph glyph-name="y" unicode="y" horiz-adv-x="1026" 
d="M593 43c0 -138 -12 -190 -76 -224c-17 -9 -35 -13 -56 -13c-82 0 -136 71 -136 179v58h268zM457 599c86 0 160 -146 160 -315c-1 -90 -11 -150 -29 -180l-262 2c-20 30 -30 85 -30 165c0 186 67 328 161 328zM170 793c-60 -33 -76 -78 -79 -146c0 -95 67 -173 149 -173
c12 0 26 2 41 6c-18 -63 -19 -70 -19 -81c-11 -3 -22 -4 -35 -4c-100 0 -218 101 -225 250c0 62 28 112 85 148h83zM617 408c27 -8 52 -12 77 -12c124 0 222 87 228 208c0 58 -29 106 -87 144l46 51h-243l123 -123l27 37c37 -26 56 -59 56 -99c0 -81 -69 -141 -169 -147
c-20 0 -41 4 -62 13z" />
    <glyph glyph-name="z" unicode="z" horiz-adv-x="1203" 
d="M825 682h275l-914 -756l747 -2l-49 148l221 -174l-221 -100l46 62l-927 2l914 757h-96zM-1 637c0 89 141 160 315 160c89 -1 149 -10 180 -29l-2 -262c-32 -20 -89 -30 -172 -30c-181 0 -321 70 -321 161zM555 505v268c139 0 191 -12 225 -76c9 -17 13 -35 13 -56
c0 -82 -71 -136 -179 -136h-59z" />
  </font>
</defs>
</svg>
